<svg version="1.2" xmlns="http://www.w3.org/2000/svg" viewBox="0 0 198 224" width="128" height="145">
	<title>icon-svg</title>
	<defs>
		<clipPath clipPathUnits="userSpaceOnUse" id="cp1">
			<path d="m6 6h187.03v212.7h-187.03z"/>
		</clipPath>
	</defs>
	<style>
		.s0 { fill: #269ed3 } 
	</style>
	<g id="Clip-Path" clip-path="url(#cp1)">
		<g id="Layer">
			<path id="Layer" fill-rule="evenodd" class="s0" d="m193.1 51.3c0.1 12.3-5 24.1-13.7 32.8 0 0-7.3 7.4-7.4 7.4q-0.2 0.2-0.4 0.4 0 0-0.1 0-0.2 0.1-0.4 0.2-0.1 0-0.1 0.1-0.2 0-0.5 0.1 0 0 0 0-0.3 0.1-0.6 0.1c0 0-23.3 0-23.3 0-1 0-1.9-0.6-2.3-1.4l-4.6-9.2c-0.9-1.9-3.6-1.9-4.5 0l-14.3 28.6c-1 1.9-3.6 1.9-4.6 0l-4.8-9.8c-1-1.8-3.6-1.8-4.6 0l-4.9 9.8c-0.9 1.9-3.6 1.9-4.5 0l-14.3-28.6c-1-1.9-3.6-1.9-4.5 0l-4.6 9.2c-0.5 0.8-1.3 1.4-2.3 1.4h-19.2c-1.7 0-3-1.5-3-3.2 0.1-1.6 1.5-2.9 3.2-2.9h15.2c1 0 1.9-0.6 2.3-1.4l8.4-16.7c0.9-1.9 3.5-1.9 4.5 0l14.3 28.6c0.9 1.9 3.6 1.9 4.5 0l4.9-9.7c1-1.9 3.6-1.9 4.6 0l4.8 9.7c1 1.9 3.6 1.9 4.6 0l14.3-28.6c0.9-1.9 3.6-1.9 4.5 0l8.4 16.7c0.4 0.8 1.3 1.4 2.2 1.4h17.3c0.7 0 1.3-0.3 1.8-0.8l5.8-5.7c7.4-7.5 11.8-17.5 11.8-28 0-10.5-4-20.4-11.4-27.8-7.5-7.4-17.3-11.5-27.8-11.4-10.5 0-20.5 4.4-28 11.8l-17.9 17.9c-0.6 0.6-1.4 0.9-2.2 0.9-0.8 0-1.6-0.3-2.3-0.9l-18.2-18.3c-15.3-15.2-40.1-15.2-55.4 0-15.3 15.3-15.3 40.1 0 55.4l86.1 86.1c12.3 12.2 12.3 32.2 0 44.4-6.1 6.1-14.1 9.2-22.2 9.2-8 0-16-3.1-22.1-9.2l-22-22c-0.8-0.7-2-1-2.9-0.5-3.2 1.7-6.8 2.5-10.7 2.4-11.8-0.3-21.5-10.1-21.7-22-0.2-12.8 10.6-23.2 23.5-22.5 11.2 0.5 20.3 9.5 21.1 20.7 0.4 5.6-1.4 10.9-4.5 15-0.8 1-0.7 2.4 0.2 3.3l21.3 21.3c9.9 10 26.3 9.9 36.1-0.4 9.6-9.9 9.1-25.9-0.7-35.7l-85.8-85.8c-17.7-17.8-17.6-46.7 0.3-64.3 17.8-17.4 46.5-16.9 64.1 0.7l15.8 15.8 16.2-16.2c8.5-8.5 19.8-13.2 31.8-13.2 11.6-0.1 22.9 4.4 31.4 12.4 8.9 8.6 13.9 20.1 14 32.4zm-162.5 132.5c9 0 16.2-7.3 16.2-16.3 0-8.9-7.2-16.2-16.2-16.2-8.9 0-16.2 7.3-16.2 16.2 0 9 7.3 16.3 16.2 16.3z"/>
		</g>
	</g>
</svg>