<svg version="1.2" xmlns="http://www.w3.org/2000/svg" viewBox="0 0 305 116" width="200" height="76">
	<title>logo-svg</title>
	<defs>
		<clipPath clipPathUnits="userSpaceOnUse" id="cp1">
			<path d="m5 4h94.65v106.98h-94.65z"/>
		</clipPath>
	</defs>
	<style>
		.s0 { fill: #269ed3 } 
		.s1 { fill: #1ca4ac } 
	</style>
	<g id="Clip-Path" clip-path="url(#cp1)">
		<g id="Layer">
			<path id="Layer" fill-rule="evenodd" class="s0" d="m99.3 26.9c0 6.2-2.5 12.1-6.8 16.4 0 0-3.7 3.7-3.7 3.7q-0.1 0.1-0.3 0.2 0 0 0 0-0.1 0.1-0.2 0.1 0 0 0 0-0.2 0.1-0.3 0.1 0 0 0 0-0.2 0-0.3 0c0 0-11.7 0-11.7 0-0.4 0-0.9-0.2-1.1-0.7l-2.3-4.6c-0.5-0.9-1.8-0.9-2.3 0l-7.1 14.4c-0.5 0.9-1.8 0.9-2.3 0l-2.4-4.9c-0.5-1-1.8-1-2.3 0l-2.4 4.9c-0.5 0.9-1.8 0.9-2.3 0l-7.2-14.4c-0.4-0.9-1.8-0.9-2.2 0l-2.3 4.6c-0.2 0.5-0.7 0.7-1.1 0.7h-9.6c-0.9 0-1.6-0.7-1.5-1.5 0-0.9 0.7-1.5 1.5-1.5h7.7c0.5 0 0.9-0.3 1.1-0.7l4.2-8.4c0.4-0.9 1.8-0.9 2.2 0l7.2 14.4c0.5 0.9 1.8 0.9 2.3 0l2.4-4.9c0.5-1 1.8-1 2.3 0l2.4 4.9c0.5 0.9 1.8 0.9 2.3 0l7.2-14.3c0.4-1 1.8-1 2.2 0l4.2 8.3c0.2 0.4 0.6 0.7 1.1 0.7h8.7c0.3 0 0.6-0.1 0.8-0.4l2.9-2.9c3.8-3.7 6-8.7 6-14 0-5.2-2.1-10.1-5.8-13.8-3.7-3.7-8.6-5.8-13.9-5.8-5.2 0-10.2 2.2-13.9 5.9l-9 9c-0.3 0.3-0.7 0.5-1.1 0.4-0.4 0.1-0.8-0.1-1.1-0.4l-9.2-9.1c-7.6-7.7-20-7.7-27.6 0-7.7 7.6-7.7 20 0 27.6l43 43.1c6.1 6.1 6.1 16.1 0 22.2-3 3-7.1 4.6-11.1 4.6-4 0-8-1.6-11.1-4.6l-10.9-11c-0.4-0.4-1-0.5-1.5-0.2-1.6 0.8-3.4 1.2-5.3 1.2-6-0.2-10.8-5.1-10.9-11-0.1-6.5 5.3-11.7 11.8-11.3 5.5 0.3 10.1 4.7 10.5 10.3 0.2 2.9-0.7 5.5-2.3 7.5-0.3 0.6-0.3 1.3 0.2 1.7l10.6 10.6c5 5 13.1 5 18-0.1 4.9-5 4.6-13-0.3-17.9l-42.9-42.9c-8.9-8.9-8.8-23.3 0.2-32.1 8.9-8.8 23.2-8.5 32 0.3l7.9 7.9 8.1-8.1c4.2-4.2 9.9-6.6 15.9-6.6 5.8 0 11.5 2.2 15.7 6.2 4.5 4.3 6.9 10.1 7 16.2zm-81.2 66.2c4.4 0 8.1-3.6 8.1-8.1 0-4.5-3.7-8.1-8.1-8.1-4.5 0-8.2 3.6-8.2 8.1 0 4.5 3.7 8.1 8.2 8.1z"/>
		</g>
	</g>
	<g id="Layer">
		<g id="Layer">
			<g id="Layer">
				<path id="Layer" class="s1" d="m74.7 81.8h-5.5v-29.6h5.5v12.3h12.7v-12.3h5.6v29.6h-5.6v-12.3h-12.7z"/>
			</g>
		</g>
	</g>
	<g id="Layer">
		<g id="Layer">
			<g id="Layer">
				<path id="Layer" fill-rule="evenodd" class="s1" d="m108.2 82.2q-3.3 0-5.8-1.4-2.5-1.5-3.9-4-1.4-2.5-1.4-5.7 0-2.2 0.7-4.2 0.7-2.1 2-3.7 1.4-1.7 3.4-2.7 2.1-0.9 4.9-0.9 2.1 0 4 0.6 2 0.7 3.5 2.1 1.6 1.4 2.5 3.5 0.9 2.1 0.9 5.1v1.1h-16.4q0.1 0.7 0.3 1.4 0.2 0.6 0.5 1.1 0.8 1.6 2.1 2.4 1.3 0.8 2.9 0.8 1.9 0 3.2-1 1.2-0.9 1.7-2.2h5.4q-0.6 2.1-2 3.8-1.4 1.8-3.5 2.9-2.1 1-5 1zm-5.4-14.1h10.9q-0.1-0.5-0.3-1-0.1-0.5-0.5-1-0.8-1.2-2-1.8-1.2-0.6-2.7-0.6-1.4 0-2.6 0.6-1.2 0.6-1.9 1.8-0.5 0.5-0.6 1-0.2 0.5-0.3 1z"/>
			</g>
		</g>
	</g>
	<g id="Layer">
		<g id="Layer">
			<g id="Layer">
				<path id="Layer" fill-rule="evenodd" class="s1" d="m129.1 82.2q-3 0-5.1-1.6-2-1.7-2-4.8 0-1.7 0.7-2.9 0.7-1.3 1.8-2 1-0.8 2.4-1.2 1.3-0.4 2.7-0.7l6.4-1.2q0-2-1-3.1-1-1-2.9-1-1.5 0-2.6 0.9-1.2 0.8-1.5 2.4h-5.2q0.4-2.6 1.8-4.2 1.4-1.6 3.4-2.4 2-0.8 4.1-0.8 1.9 0 3.7 0.5 1.7 0.6 2.9 1.7 1.3 1.1 1.8 2.6 0.6 1.4 0.7 3 0.1 1.6 0.1 3.1v11.3h-5.3v-3q-0.8 1.5-1.9 2.2-1 0.7-2.3 1-1.3 0.2-2.7 0.2zm1.3-4.1q1.6 0 2.8-0.6 1.7-0.9 2.3-2.3 0.6-1.4 0.6-3.6l-5.1 1.1q-1.2 0.2-1.9 0.5-0.7 0.3-1.2 0.7-0.3 0.3-0.5 0.8-0.2 0.4-0.2 0.9 0 1.2 0.9 1.9 0.9 0.6 2.3 0.6z"/>
			</g>
		</g>
	</g>
	<g id="Layer">
		<g id="Layer">
			<g id="Layer">
				<path id="Layer" class="s1" d="m154.1 81.8h-3.4q-2.4 0-3.7-1.1-1.3-1.2-1.3-3.7v-24.8h5.2v23.3q0 1.1 0.4 1.5 0.4 0.5 1.4 0.5h1.4z"/>
			</g>
		</g>
	</g>
	<g id="Layer">
		<g id="Layer">
			<g id="Layer">
				<path id="Layer" class="s1" d="m168.6 81.8h-4.3q-2.4 0-3.8-1.1-1.3-1.2-1.3-3.7v-12.8h-3.2v-4.2h3.2v-7.8h5.2v7.8h4.2v4.2h-4.2v11.2q0 0.9 0.3 1.5 0.3 0.6 1.5 0.6h2.4z"/>
			</g>
		</g>
	</g>
	<g id="Layer">
		<g id="Layer">
			<g id="Layer">
				<path id="Layer" class="s1" d="m177.6 81.8h-5.2v-29.6h5.2v10.6q1.3-1.8 2.7-2.5 1.4-0.7 3.2-0.7 3 0 4.5 1.1 1.6 1 2.3 2.5 0.7 1.5 0.8 3 0.1 1.4 0.1 3.1v12.5h-5.2v-12.6q0-3.2-1.1-4.3-0.9-1-2.7-1-2.3 0-3.4 1.3-0.6 0.8-0.9 2.1-0.3 1.2-0.3 3.4z"/>
			</g>
		</g>
	</g>
	<g id="Layer">
		<g id="Layer">
			<g id="Layer">
				<path id="Layer" fill-rule="evenodd" class="s1" d="m201.6 81.8h-5.6v-29.6h12.8q2.8 0 4.9 0.9 2.1 0.9 3.3 2.9 1.2 1.9 1.2 4.9 0 2.9-1.2 4.9-1.2 2-3.3 3.1-2.1 1.1-4.9 1.1h-7.2zm0-24.6v7.9h6.4q2.3 0 3.5-1 1.1-1 1.1-3 0-1.9-1.2-2.9-1.2-1-3.4-1z"/>
			</g>
		</g>
	</g>
	<g id="Layer">
		<g id="Layer">
			<g id="Layer">
				<path id="Layer" class="s1" d="m229.2 82.2q-5.1 0-6.8-3.6-0.5-1.1-0.7-2.4-0.2-1.3-0.2-3.6v-12.6h5.2v12.6q0 1.7 0.3 2.7 0.2 1 0.8 1.7 0.9 0.9 2.7 0.9 2.3 0 3.3-1.3 0.7-0.8 1-2.1 0.3-1.3 0.3-3.4v-11.1h5.2v21.8h-5.2v-2.8q-1.2 1.7-2.6 2.5-1.4 0.7-3.3 0.7z"/>
			</g>
		</g>
	</g>
	<g id="Layer">
		<g id="Layer">
			<g id="Layer">
				<path id="Layer" class="s1" d="m253.4 81.8h-3.4q-2.4 0-3.7-1.1-1.3-1.2-1.3-3.7v-24.8h5.2v23.3q0 1.1 0.4 1.5 0.4 0.5 1.4 0.5h1.4z"/>
			</g>
		</g>
	</g>
	<g id="Layer">
		<g id="Layer">
			<g id="Layer">
				<path id="Layer" class="s1" d="m266.2 82.2q-2.5 0-4.7-0.8-2.3-0.8-3.8-2.5-1.5-1.7-1.9-4.4h5.1q0.5 1.7 1.9 2.7 1.4 0.9 3.4 0.9 1.6 0 2.7-0.6 1.1-0.7 1.1-1.9 0-1-0.7-1.5-0.7-0.6-1.9-0.9-1.2-0.3-2.6-0.6-1.3-0.3-2.8-0.6-1.5-0.4-2.7-1.1-1.2-0.7-1.9-1.8-0.7-1.2-0.7-3 0-2.3 1.1-3.7 1.2-1.5 3.1-2.1 1.9-0.7 4.2-0.7 3.8 0 6.3 1.9 2.6 1.9 3.2 5.5h-4.9q-0.5-1.8-1.8-2.5-1.3-0.8-2.9-0.8-1.5 0-2.4 0.6-0.9 0.6-0.9 1.6 0 0.9 0.7 1.4 0.7 0.5 1.8 0.8 1.2 0.2 2.5 0.5 1.4 0.3 2.9 0.7 1.5 0.3 2.7 1 1.3 0.7 2.1 1.9 0.8 1.1 0.8 3 0 3.2-2.4 5.1-2.4 1.9-6.6 1.9z"/>
			</g>
		</g>
	</g>
	<g id="Layer">
		<g id="Layer">
			<g id="Layer">
				<path id="Layer" fill-rule="evenodd" class="s1" d="m289.3 82.2q-3.3 0-5.8-1.4-2.5-1.5-3.9-4-1.4-2.5-1.4-5.7 0-2.2 0.7-4.2 0.6-2.1 2-3.7 1.4-1.7 3.4-2.7 2.1-0.9 4.9-0.9 2 0 4 0.6 2 0.7 3.5 2.1 1.6 1.4 2.5 3.5 0.9 2.1 0.9 5.1v1.1h-16.4q0 0.7 0.3 1.4 0.2 0.6 0.5 1.1 0.7 1.6 2 2.4 1.3 0.8 3 0.8 1.9 0 3.1-1 1.3-0.9 1.8-2.2h5.3q-0.6 2.1-1.9 3.8-1.4 1.8-3.5 2.9-2.1 1-5 1zm-5.4-14.1h10.8q0-0.5-0.2-1-0.2-0.5-0.6-1-0.7-1.2-1.9-1.8-1.2-0.6-2.7-0.6-1.4 0-2.6 0.6-1.2 0.6-2 1.8-0.4 0.5-0.6 1-0.1 0.5-0.2 1z"/>
			</g>
		</g>
	</g>
</svg>